<svg width="2571" height="1820" xmlns="http://www.w3.org/2000/svg" xmlns:xlink="http://www.w3.org/1999/xlink" overflow="hidden"><defs><clipPath id="clip0"><rect x="2250" y="187" width="2571" height="1820"/></clipPath><clipPath id="clip1"><rect x="2252" y="192" width="2565" height="1810"/></clipPath><clipPath id="clip2"><rect x="2252" y="192" width="2565" height="1810"/></clipPath><clipPath id="clip3"><rect x="2252" y="192" width="2565" height="1810"/></clipPath><clipPath id="clip4"><rect x="2252" y="192" width="2565" height="1810"/></clipPath><clipPath id="clip5"><rect x="2252" y="192" width="2565" height="1810"/></clipPath><clipPath id="clip6"><rect x="2252" y="192" width="2565" height="1810"/></clipPath><clipPath id="clip7"><rect x="2513" y="384" width="2246" height="1393"/></clipPath><clipPath id="clip8"><rect x="2252" y="192" width="2565" height="1810"/></clipPath><clipPath id="clip9"><rect x="2252" y="192" width="2565" height="1810"/></clipPath><clipPath id="clip10"><rect x="2252" y="192" width="2565" height="1810"/></clipPath><clipPath id="clip11"><rect x="2252" y="192" width="2565" height="1810"/></clipPath><clipPath id="clip12"><rect x="2252" y="192" width="2565" height="1810"/></clipPath><clipPath id="clip13"><rect x="2252" y="192" width="2565" height="1810"/></clipPath><clipPath id="clip14"><rect x="2252" y="192" width="2565" height="1810"/></clipPath><clipPath id="clip15"><rect x="2252" y="192" width="2565" height="1810"/></clipPath><clipPath id="clip16"><rect x="2252" y="192" width="2565" height="1810"/></clipPath><clipPath id="clip17"><rect x="2252" y="192" width="2565" height="1810"/></clipPath><clipPath id="clip18"><rect x="2252" y="192" width="2565" height="1810"/></clipPath><clipPath id="clip19"><rect x="2252" y="192" width="2565" height="1810"/></clipPath><clipPath id="clip20"><rect x="2252" y="192" width="2565" height="1810"/></clipPath><clipPath id="clip21"><rect x="2252" y="192" width="2565" height="1810"/></clipPath><clipPath id="clip22"><rect x="2252" y="192" width="2565" height="1810"/></clipPath><clipPath id="clip23"><rect x="2252" y="192" width="2565" height="1810"/></clipPath><clipPath id="clip24"><rect x="2252" y="192" width="2565" height="1810"/></clipPath><clipPath id="clip25"><rect x="2252" y="192" width="2565" height="1810"/></clipPath><clipPath id="clip26"><rect x="2252" y="192" width="2565" height="1810"/></clipPath><clipPath id="clip27"><rect x="2252" y="192" width="2565" height="1810"/></clipPath><clipPath id="clip28"><rect x="2252" y="192" width="2565" height="1810"/></clipPath></defs><g clip-path="url(#clip0)" transform="translate(-2250 -187)"><rect x="2253" y="193" width="2564" height="1810" fill="#FFFFFF" fill-opacity="1"/><g clip-path="url(#clip1)"><path d="M2513.5 1575.55 4756.5 1575.55M2513.5 1376.55 4756.5 1376.55M2513.5 1178.54 4756.5 1178.54M2513.5 980.532 4756.5 980.532M2513.5 781.526 4756.5 781.526M2513.5 583.519 4756.5 583.519M2513.5 384.5 4756.5 384.5" stroke="#D9D9D9" stroke-width="3.4375" stroke-linecap="butt" stroke-linejoin="round" stroke-miterlimit="10" stroke-opacity="1" fill="none" fill-rule="nonzero"/></g><g clip-path="url(#clip2)"><path d="M2737.59 384.5 2737.59 1773.5M3186.6 384.5 3186.6 1773.5M3634.62 384.5 3634.62 1773.5M4083.63 384.5 4083.63 1773.5M4531.65 384.5 4531.65 1773.5" stroke="#F2F2F2" stroke-width="3.4375" stroke-linecap="butt" stroke-linejoin="round" stroke-miterlimit="10" stroke-opacity="1" fill="none" fill-rule="nonzero"/></g><g clip-path="url(#clip3)"><path d="M2961.6 384.5 2961.6 1773.5M3410.61 384.5 3410.61 1773.5M3858.63 384.5 3858.63 1773.5M4307.64 384.5 4307.64 1773.5M4756.5 384.5 4756.5 1773.5" stroke="#D9D9D9" stroke-width="3.4375" stroke-linecap="butt" stroke-linejoin="round" stroke-miterlimit="10" stroke-opacity="1" fill="none" fill-rule="nonzero"/></g><g clip-path="url(#clip4)"><path d="M0 0 0.000360892 1389" stroke="#BFBFBF" stroke-width="3.4375" stroke-linecap="butt" stroke-linejoin="round" stroke-miterlimit="10" stroke-opacity="1" fill="none" fill-rule="evenodd" transform="matrix(1 0 0 -1 2513.5 1773.5)"/></g><g clip-path="url(#clip5)"><path d="M2513.5 1773.5 4756.5 1773.5" stroke="#BFBFBF" stroke-width="3.4375" stroke-linecap="butt" stroke-linejoin="round" stroke-miterlimit="10" stroke-opacity="1" fill="none" fill-rule="evenodd"/></g><g clip-path="url(#clip6)"><path d="M2513.5 1763.56 2513.5 1783.56M2737.59 1763.56 2737.59 1783.56M2961.6 1763.56 2961.6 1783.56M3186.6 1763.56 3186.6 1783.56M3410.61 1763.56 3410.61 1783.56M3634.62 1763.56 3634.62 1783.56M3858.63 1763.56 3858.63 1783.56M4083.63 1763.56 4083.63 1783.56M4307.64 1763.56 4307.64 1783.56M4531.65 1763.56 4531.65 1783.56M4756.5 1763.56 4756.5 1783.56M2513.5 1760.5 2513.5 1786.5M2961.6 1760.5 2961.6 1786.5M3410.61 1760.5 3410.61 1786.5M3858.63 1760.5 3858.63 1786.5M4307.64 1760.5 4307.64 1786.5M4756.5 1760.5 4756.5 1786.5" stroke="#BFBFBF" stroke-width="3.4375" stroke-linecap="butt" stroke-linejoin="round" stroke-miterlimit="10" stroke-opacity="1" fill="none" fill-rule="nonzero"/></g><g clip-path="url(#clip7)"><path d="M2513.5 1773.5 2961.6 1687.56 3410.61 1630.55 3858.63 1401.55 4307.64 1001.53 4756.5 630.5" stroke="#00B0F0" stroke-width="6.875" stroke-linecap="round" stroke-linejoin="round" stroke-miterlimit="10" stroke-opacity="1" fill="none" fill-rule="nonzero"/></g><g clip-path="url(#clip8)"><path d="M2524.21 1774C2524.21 1780.07 2519.28 1785 2513.21 1785 2507.13 1785 2502.21 1780.07 2502.21 1774 2502.21 1767.92 2507.13 1763 2513.21 1763 2519.28 1763 2524.21 1767.92 2524.21 1774Z" stroke="#00B0F0" stroke-width="3.4375" stroke-linecap="butt" stroke-linejoin="round" stroke-miterlimit="10" stroke-opacity="1" fill="#00B0F0" fill-rule="nonzero" fill-opacity="1"/><path d="M2972.21 1688C2972.21 1694.07 2967.28 1699 2961.21 1699 2955.13 1699 2950.21 1694.07 2950.21 1688 2950.21 1681.92 2955.13 1677 2961.21 1677 2967.28 1677 2972.21 1681.92 2972.21 1688Z" stroke="#00B0F0" stroke-width="3.4375" stroke-linecap="butt" stroke-linejoin="round" stroke-miterlimit="10" stroke-opacity="1" fill="#00B0F0" fill-rule="nonzero" fill-opacity="1"/><path d="M3421.21 1631C3421.21 1637.07 3416.28 1642 3410.21 1642 3404.13 1642 3399.21 1637.07 3399.21 1631 3399.21 1624.92 3404.13 1620 3410.21 1620 3416.28 1620 3421.21 1624.92 3421.21 1631Z" stroke="#00B0F0" stroke-width="3.4375" stroke-linecap="butt" stroke-linejoin="round" stroke-miterlimit="10" stroke-opacity="1" fill="#00B0F0" fill-rule="nonzero" fill-opacity="1"/><path d="M3870.21 1402C3870.21 1408.07 3865.28 1413 3859.21 1413 3853.13 1413 3848.21 1408.07 3848.21 1402 3848.21 1395.92 3853.13 1391 3859.21 1391 3865.28 1391 3870.21 1395.92 3870.21 1402Z" stroke="#00B0F0" stroke-width="3.4375" stroke-linecap="butt" stroke-linejoin="round" stroke-miterlimit="10" stroke-opacity="1" fill="#00B0F0" fill-rule="nonzero" fill-opacity="1"/><path d="M4318.21 1002C4318.21 1008.07 4313.28 1013 4307.21 1013 4301.13 1013 4296.21 1008.07 4296.21 1002 4296.21 995.925 4301.13 991 4307.21 991 4313.28 991 4318.21 995.925 4318.21 1002Z" stroke="#00B0F0" stroke-width="3.4375" stroke-linecap="butt" stroke-linejoin="round" stroke-miterlimit="10" stroke-opacity="1" fill="#00B0F0" fill-rule="nonzero" fill-opacity="1"/><path d="M4767.21 630.999C4767.21 637.074 4762.28 641.999 4756.21 641.999 4750.13 641.999 4745.21 637.074 4745.21 630.999 4745.21 624.924 4750.13 620 4756.21 620 4762.28 620 4767.21 624.924 4767.21 630.999Z" stroke="#00B0F0" stroke-width="3.4375" stroke-linecap="butt" stroke-linejoin="round" stroke-miterlimit="10" stroke-opacity="1" fill="#00B0F0" fill-rule="nonzero" fill-opacity="1"/></g><g clip-path="url(#clip9)"><text fill="#595959" fill-opacity="1" font-family="Calibri,Calibri_MSFontService,sans-serif" font-style="normal" font-variant="normal" font-weight="400" font-stretch="normal" font-size="41" text-anchor="start" direction="ltr" writing-mode="lr-tb" unicode-bidi="normal" text-decoration="none" transform="matrix(1 0 0 1 2402.08 1784)">1.00</text></g><g clip-path="url(#clip10)"><text fill="#595959" fill-opacity="1" font-family="Calibri,Calibri_MSFontService,sans-serif" font-style="normal" font-variant="normal" font-weight="400" font-stretch="normal" font-size="41" text-anchor="start" direction="ltr" writing-mode="lr-tb" unicode-bidi="normal" text-decoration="none" transform="matrix(1 0 0 1 2402.08 1586)">1.01</text></g><g clip-path="url(#clip11)"><text fill="#595959" fill-opacity="1" font-family="Calibri,Calibri_MSFontService,sans-serif" font-style="normal" font-variant="normal" font-weight="400" font-stretch="normal" font-size="41" text-anchor="start" direction="ltr" writing-mode="lr-tb" unicode-bidi="normal" text-decoration="none" transform="matrix(1 0 0 1 2402.08 1387)">1.02</text></g><g clip-path="url(#clip12)"><text fill="#595959" fill-opacity="1" font-family="Calibri,Calibri_MSFontService,sans-serif" font-style="normal" font-variant="normal" font-weight="400" font-stretch="normal" font-size="41" text-anchor="start" direction="ltr" writing-mode="lr-tb" unicode-bidi="normal" text-decoration="none" transform="matrix(1 0 0 1 2402.08 1189)">1.03</text></g><g clip-path="url(#clip13)"><text fill="#595959" fill-opacity="1" font-family="Calibri,Calibri_MSFontService,sans-serif" font-style="normal" font-variant="normal" font-weight="400" font-stretch="normal" font-size="41" text-anchor="start" direction="ltr" writing-mode="lr-tb" unicode-bidi="normal" text-decoration="none" transform="matrix(1 0 0 1 2402.08 991)">1.04</text></g><g clip-path="url(#clip14)"><text fill="#595959" fill-opacity="1" font-family="Calibri,Calibri_MSFontService,sans-serif" font-style="normal" font-variant="normal" font-weight="400" font-stretch="normal" font-size="41" text-anchor="start" direction="ltr" writing-mode="lr-tb" unicode-bidi="normal" text-decoration="none" transform="matrix(1 0 0 1 2402.08 792)">1.05</text></g><g clip-path="url(#clip15)"><text fill="#595959" fill-opacity="1" font-family="Calibri,Calibri_MSFontService,sans-serif" font-style="normal" font-variant="normal" font-weight="400" font-stretch="normal" font-size="41" text-anchor="start" direction="ltr" writing-mode="lr-tb" unicode-bidi="normal" text-decoration="none" transform="matrix(1 0 0 1 2402.08 594)">1.06</text></g><g clip-path="url(#clip16)"><text fill="#595959" fill-opacity="1" font-family="Calibri,Calibri_MSFontService,sans-serif" font-style="normal" font-variant="normal" font-weight="400" font-stretch="normal" font-size="41" text-anchor="start" direction="ltr" writing-mode="lr-tb" unicode-bidi="normal" text-decoration="none" transform="matrix(1 0 0 1 2402.08 395)">1.07</text></g><g clip-path="url(#clip17)"><text fill="#595959" fill-opacity="1" font-family="Calibri,Calibri_MSFontService,sans-serif" font-style="normal" font-variant="normal" font-weight="400" font-stretch="normal" font-size="41" text-anchor="start" direction="ltr" writing-mode="lr-tb" unicode-bidi="normal" text-decoration="none" transform="matrix(1 0 0 1 2502.98 1839)">0</text></g><g clip-path="url(#clip18)"><text fill="#595959" fill-opacity="1" font-family="Calibri,Calibri_MSFontService,sans-serif" font-style="normal" font-variant="normal" font-weight="400" font-stretch="normal" font-size="41" text-anchor="start" direction="ltr" writing-mode="lr-tb" unicode-bidi="normal" text-decoration="none" transform="matrix(1 0 0 1 2935.89 1839)">0.2</text></g><g clip-path="url(#clip19)"><text fill="#595959" fill-opacity="1" font-family="Calibri,Calibri_MSFontService,sans-serif" font-style="normal" font-variant="normal" font-weight="400" font-stretch="normal" font-size="41" text-anchor="start" direction="ltr" writing-mode="lr-tb" unicode-bidi="normal" text-decoration="none" transform="matrix(1 0 0 1 3384.44 1839)">0.4</text></g><g clip-path="url(#clip20)"><text fill="#595959" fill-opacity="1" font-family="Calibri,Calibri_MSFontService,sans-serif" font-style="normal" font-variant="normal" font-weight="400" font-stretch="normal" font-size="41" text-anchor="start" direction="ltr" writing-mode="lr-tb" unicode-bidi="normal" text-decoration="none" transform="matrix(1 0 0 1 3833 1839)">0.6</text></g><g clip-path="url(#clip21)"><text fill="#595959" fill-opacity="1" font-family="Calibri,Calibri_MSFontService,sans-serif" font-style="normal" font-variant="normal" font-weight="400" font-stretch="normal" font-size="41" text-anchor="start" direction="ltr" writing-mode="lr-tb" unicode-bidi="normal" text-decoration="none" transform="matrix(1 0 0 1 4281.56 1839)">0.8</text></g><g clip-path="url(#clip22)"><text fill="#595959" fill-opacity="1" font-family="Calibri,Calibri_MSFontService,sans-serif" font-style="normal" font-variant="normal" font-weight="400" font-stretch="normal" font-size="41" text-anchor="start" direction="ltr" writing-mode="lr-tb" unicode-bidi="normal" text-decoration="none" transform="matrix(1 0 0 1 4745.77 1839)">1</text></g><g clip-path="url(#clip23)"><text fill="#595959" fill-opacity="1" font-family="Calibri,Calibri_MSFontService,sans-serif" font-style="italic" font-variant="normal" font-weight="400" font-stretch="normal" font-size="64" text-anchor="start" direction="ltr" writing-mode="lr-tb" unicode-bidi="normal" text-decoration="none" transform="matrix(6.12323e-17 -1 1 6.12323e-17 2371 1094)">k</text></g><g clip-path="url(#clip24)"><text fill="#595959" fill-opacity="1" font-family="Calibri,Calibri_MSFontService,sans-serif" font-style="normal" font-variant="normal" font-weight="400" font-stretch="normal" font-size="64" text-anchor="start" direction="ltr" writing-mode="lr-tb" unicode-bidi="normal" text-decoration="none" transform="matrix(1 0 0 1 3451.3 1951)">Rise Time(</text></g><g clip-path="url(#clip25)"><text fill="#595959" fill-opacity="1" font-family="Symbol,Symbol_MSFontService,sans-serif" font-style="oblique" font-variant="normal" font-weight="400" font-stretch="normal" font-size="64" text-anchor="start" direction="ltr" writing-mode="lr-tb" unicode-bidi="normal" text-decoration="none" transform="matrix(1 0 0 1 3721.02 1951)">ï­</text></g><g clip-path="url(#clip26)"><text fill="#595959" fill-opacity="1" font-family="Calibri,Calibri_MSFontService,sans-serif" font-style="italic" font-variant="normal" font-weight="400" font-stretch="normal" font-size="64" text-anchor="start" direction="ltr" writing-mode="lr-tb" unicode-bidi="normal" text-decoration="none" transform="matrix(1 0 0 1 3757.99 1951)">s</text></g><g clip-path="url(#clip27)"><text fill="#595959" fill-opacity="1" font-family="Calibri,Calibri_MSFontService,sans-serif" font-style="normal" font-variant="normal" font-weight="400" font-stretch="normal" font-size="64" text-anchor="start" direction="ltr" writing-mode="lr-tb" unicode-bidi="normal" text-decoration="none" transform="matrix(1 0 0 1 3782.97 1951)">)</text></g><g clip-path="url(#clip28)"><text fill="#595959" fill-opacity="1" font-family="Calibri,Calibri_MSFontService,sans-serif" font-style="normal" font-variant="normal" font-weight="400" font-stretch="normal" font-size="83" text-anchor="start" direction="ltr" writing-mode="lr-tb" unicode-bidi="normal" text-decoration="none" transform="matrix(1 0 0 1 2920.61 306)">Rise Time v Change in Time Constant</text></g><rect x="2253.5" y="193.5" width="2564" height="1810" stroke="#D9D9D9" stroke-width="3.4375" stroke-linecap="butt" stroke-linejoin="round" stroke-miterlimit="10" stroke-opacity="1" fill="none"/></g></svg>